<svg version="1.2" xmlns="http://www.w3.org/2000/svg" viewBox="0 0 436 230" width="436" height="230">
	<style>
		.s0 { fill: #eaeaea } 
		.s1 { fill: #ff6900 } 
	</style>
	<g id="Layer 1">
		<path id="DC" class="s0" aria-label="DC"  d="m169.1 205h-141v-175.1h141q9.3 0 17.1 4.6 7.8 4.7 12.4 12.4 4.6 7.6 4.6 16.8v107.5q0 9.2-4.6 17-4.6 7.6-12.4 12.2-7.8 4.6-17.1 4.6zm-106.2-32.3h104.8q1.2 0 2.2-0.8 0.9-0.9 0.9-2.2v-104.5q0-1.2-0.9-2-1-0.9-2.2-0.9h-104.8q-1.2 0-2.2 0.9-0.7 0.8-0.7 2v104.5q0 1.3 0.7 2.2 1 0.8 2.2 0.8z"/>
		<path id="DC" class="s1" aria-label="DC"  d="m405.2 205h-140.8q-9.2 0-17-4.6-7.5-4.6-12.2-12.2-4.6-7.8-4.6-17v-107.5q0-9.2 4.6-16.8 4.7-7.7 12.2-12.4 7.8-4.6 17-4.6h140.8v32.4h-134q-3.9 0-6.3 2.1-2.2 2.2-2.2 6.4v93.3q0 3.9 2.2 6.4 2.4 2.2 6.3 2.2h134z"/>
	</g>
</svg>